<mxfile host="app.diagrams.net" modified="2024-03-28T02:29:37.505Z" agent="Mozilla/5.0 (Macintosh; Intel Mac OS X 10_15_7) AppleWebKit/537.36 (KHTML, like Gecko) Chrome/122.0.0.0 Safari/537.36" etag="BtIMNm3hTjqqG6csx7p3" version="24.1.0" type="github">
  <diagram name="第 1 页" id="LmHKKZuUkDMLqIImeYsX">
    <mxGraphModel dx="658" dy="383" grid="1" gridSize="10" guides="1" tooltips="1" connect="1" arrows="1" fold="1" page="1" pageScale="1" pageWidth="1169" pageHeight="1654" math="0" shadow="0">
      <root>
        <mxCell id="0" />
        <mxCell id="1" parent="0" />
        <mxCell id="qOD5johp-wV2QWAiRMah-6" value="" style="edgeStyle=orthogonalEdgeStyle;rounded=0;orthogonalLoop=1;jettySize=auto;html=1;" parent="1" source="qOD5johp-wV2QWAiRMah-1" target="qOD5johp-wV2QWAiRMah-2" edge="1">
          <mxGeometry relative="1" as="geometry" />
        </mxCell>
        <mxCell id="qOD5johp-wV2QWAiRMah-1" value="活动告警" style="ellipse;whiteSpace=wrap;html=1;" parent="1" vertex="1">
          <mxGeometry x="100" y="40" width="120" height="60" as="geometry" />
        </mxCell>
        <mxCell id="qOD5johp-wV2QWAiRMah-8" value="" style="edgeStyle=orthogonalEdgeStyle;rounded=0;orthogonalLoop=1;jettySize=auto;html=1;" parent="1" source="qOD5johp-wV2QWAiRMah-2" target="qOD5johp-wV2QWAiRMah-7" edge="1">
          <mxGeometry relative="1" as="geometry" />
        </mxCell>
        <mxCell id="qOD5johp-wV2QWAiRMah-9" value="否" style="edgeLabel;html=1;align=center;verticalAlign=middle;resizable=0;points=[];" parent="qOD5johp-wV2QWAiRMah-8" vertex="1" connectable="0">
          <mxGeometry x="-0.24" y="1" relative="1" as="geometry">
            <mxPoint as="offset" />
          </mxGeometry>
        </mxCell>
        <mxCell id="qOD5johp-wV2QWAiRMah-43" style="edgeStyle=orthogonalEdgeStyle;rounded=0;orthogonalLoop=1;jettySize=auto;html=1;entryX=0;entryY=0.5;entryDx=0;entryDy=0;" parent="1" source="qOD5johp-wV2QWAiRMah-2" target="qOD5johp-wV2QWAiRMah-42" edge="1">
          <mxGeometry relative="1" as="geometry" />
        </mxCell>
        <mxCell id="ibjQ9SeD4kki5mKgbSd6-1" value="是" style="edgeLabel;html=1;align=center;verticalAlign=middle;resizable=0;points=[];" vertex="1" connectable="0" parent="qOD5johp-wV2QWAiRMah-43">
          <mxGeometry x="-0.6621" y="4" relative="1" as="geometry">
            <mxPoint as="offset" />
          </mxGeometry>
        </mxCell>
        <mxCell id="qOD5johp-wV2QWAiRMah-2" value="是否符合告警分派规则" style="rhombus;whiteSpace=wrap;html=1;" parent="1" vertex="1">
          <mxGeometry x="90" y="150" width="140" height="70" as="geometry" />
        </mxCell>
        <mxCell id="qOD5johp-wV2QWAiRMah-3" value="" style="endArrow=none;dashed=1;html=1;rounded=0;" parent="1" edge="1">
          <mxGeometry width="50" height="50" relative="1" as="geometry">
            <mxPoint x="430" y="640" as="sourcePoint" />
            <mxPoint x="430" as="targetPoint" />
          </mxGeometry>
        </mxCell>
        <mxCell id="qOD5johp-wV2QWAiRMah-5" value="&lt;font style=&quot;font-size: 24px;&quot;&gt;事件平台&lt;/font&gt;" style="text;html=1;align=center;verticalAlign=middle;whiteSpace=wrap;rounded=0;" parent="1" vertex="1">
          <mxGeometry x="250" y="10" width="100" height="30" as="geometry" />
        </mxCell>
        <mxCell id="qOD5johp-wV2QWAiRMah-11" value="" style="edgeStyle=orthogonalEdgeStyle;rounded=0;orthogonalLoop=1;jettySize=auto;html=1;" parent="1" source="qOD5johp-wV2QWAiRMah-7" target="qOD5johp-wV2QWAiRMah-10" edge="1">
          <mxGeometry relative="1" as="geometry" />
        </mxCell>
        <mxCell id="qOD5johp-wV2QWAiRMah-71" value="是" style="edgeLabel;html=1;align=center;verticalAlign=middle;resizable=0;points=[];" parent="qOD5johp-wV2QWAiRMah-11" vertex="1" connectable="0">
          <mxGeometry x="-0.0667" y="-1" relative="1" as="geometry">
            <mxPoint as="offset" />
          </mxGeometry>
        </mxCell>
        <mxCell id="qOD5johp-wV2QWAiRMah-15" value="" style="edgeStyle=orthogonalEdgeStyle;rounded=0;orthogonalLoop=1;jettySize=auto;html=1;" parent="1" source="qOD5johp-wV2QWAiRMah-7" target="qOD5johp-wV2QWAiRMah-14" edge="1">
          <mxGeometry relative="1" as="geometry" />
        </mxCell>
        <mxCell id="qOD5johp-wV2QWAiRMah-16" value="否" style="edgeLabel;html=1;align=center;verticalAlign=middle;resizable=0;points=[];" parent="qOD5johp-wV2QWAiRMah-15" vertex="1" connectable="0">
          <mxGeometry x="-0.0222" y="2" relative="1" as="geometry">
            <mxPoint as="offset" />
          </mxGeometry>
        </mxCell>
        <mxCell id="qOD5johp-wV2QWAiRMah-7" value="是否符合告警自愈规则" style="rhombus;whiteSpace=wrap;html=1;" parent="1" vertex="1">
          <mxGeometry x="85" y="270" width="150" height="70" as="geometry" />
        </mxCell>
        <mxCell id="qOD5johp-wV2QWAiRMah-13" value="" style="edgeStyle=orthogonalEdgeStyle;rounded=0;orthogonalLoop=1;jettySize=auto;html=1;" parent="1" source="qOD5johp-wV2QWAiRMah-10" target="qOD5johp-wV2QWAiRMah-12" edge="1">
          <mxGeometry relative="1" as="geometry" />
        </mxCell>
        <mxCell id="qOD5johp-wV2QWAiRMah-10" value="处理中" style="rounded=1;whiteSpace=wrap;html=1;" parent="1" vertex="1">
          <mxGeometry x="100" y="380" width="120" height="40" as="geometry" />
        </mxCell>
        <mxCell id="qOD5johp-wV2QWAiRMah-19" value="" style="edgeStyle=orthogonalEdgeStyle;rounded=0;orthogonalLoop=1;jettySize=auto;html=1;" parent="1" source="qOD5johp-wV2QWAiRMah-12" target="qOD5johp-wV2QWAiRMah-17" edge="1">
          <mxGeometry relative="1" as="geometry" />
        </mxCell>
        <mxCell id="qOD5johp-wV2QWAiRMah-20" value="告警恢复" style="edgeLabel;html=1;align=center;verticalAlign=middle;resizable=0;points=[];" parent="qOD5johp-wV2QWAiRMah-19" vertex="1" connectable="0">
          <mxGeometry x="-0.1667" relative="1" as="geometry">
            <mxPoint as="offset" />
          </mxGeometry>
        </mxCell>
        <mxCell id="qOD5johp-wV2QWAiRMah-12" value="告警自愈" style="rounded=1;whiteSpace=wrap;html=1;" parent="1" vertex="1">
          <mxGeometry x="100" y="460" width="120" height="40" as="geometry" />
        </mxCell>
        <mxCell id="qOD5johp-wV2QWAiRMah-18" style="edgeStyle=orthogonalEdgeStyle;rounded=0;orthogonalLoop=1;jettySize=auto;html=1;entryX=0.5;entryY=0;entryDx=0;entryDy=0;" parent="1" source="qOD5johp-wV2QWAiRMah-14" target="qOD5johp-wV2QWAiRMah-17" edge="1">
          <mxGeometry relative="1" as="geometry" />
        </mxCell>
        <mxCell id="qOD5johp-wV2QWAiRMah-38" value="自动恢复" style="edgeLabel;html=1;align=center;verticalAlign=middle;resizable=0;points=[];" parent="qOD5johp-wV2QWAiRMah-18" vertex="1" connectable="0">
          <mxGeometry x="-0.1556" y="2" relative="1" as="geometry">
            <mxPoint as="offset" />
          </mxGeometry>
        </mxCell>
        <mxCell id="qOD5johp-wV2QWAiRMah-26" style="edgeStyle=orthogonalEdgeStyle;rounded=0;orthogonalLoop=1;jettySize=auto;html=1;entryX=0;entryY=0.5;entryDx=0;entryDy=0;" parent="1" source="qOD5johp-wV2QWAiRMah-14" target="qOD5johp-wV2QWAiRMah-21" edge="1">
          <mxGeometry relative="1" as="geometry">
            <Array as="points">
              <mxPoint x="340" y="245" />
            </Array>
          </mxGeometry>
        </mxCell>
        <mxCell id="qOD5johp-wV2QWAiRMah-14" value="未分派" style="rounded=1;whiteSpace=wrap;html=1;" parent="1" vertex="1">
          <mxGeometry x="280" y="285" width="120" height="40" as="geometry" />
        </mxCell>
        <mxCell id="qOD5johp-wV2QWAiRMah-17" value="已恢复" style="rounded=1;whiteSpace=wrap;html=1;" parent="1" vertex="1">
          <mxGeometry x="280" y="460" width="120" height="40" as="geometry" />
        </mxCell>
        <mxCell id="qOD5johp-wV2QWAiRMah-27" value="告警认领" style="edgeStyle=orthogonalEdgeStyle;rounded=0;orthogonalLoop=1;jettySize=auto;html=1;" parent="1" source="qOD5johp-wV2QWAiRMah-21" target="qOD5johp-wV2QWAiRMah-23" edge="1">
          <mxGeometry relative="1" as="geometry" />
        </mxCell>
        <mxCell id="qOD5johp-wV2QWAiRMah-21" value="告警分派" style="rounded=0;whiteSpace=wrap;html=1;" parent="1" vertex="1">
          <mxGeometry x="500" y="220" width="120" height="50" as="geometry" />
        </mxCell>
        <mxCell id="qOD5johp-wV2QWAiRMah-22" value="&lt;span style=&quot;font-size: 24px;&quot;&gt;值班人员&lt;/span&gt;" style="text;html=1;align=center;verticalAlign=middle;whiteSpace=wrap;rounded=0;" parent="1" vertex="1">
          <mxGeometry x="510" y="10" width="100" height="30" as="geometry" />
        </mxCell>
        <mxCell id="qOD5johp-wV2QWAiRMah-31" style="edgeStyle=orthogonalEdgeStyle;rounded=0;orthogonalLoop=1;jettySize=auto;html=1;entryX=0.5;entryY=0;entryDx=0;entryDy=0;" parent="1" source="qOD5johp-wV2QWAiRMah-23" target="qOD5johp-wV2QWAiRMah-24" edge="1">
          <mxGeometry relative="1" as="geometry" />
        </mxCell>
        <mxCell id="qOD5johp-wV2QWAiRMah-23" value="处理中" style="rounded=1;whiteSpace=wrap;html=1;" parent="1" vertex="1">
          <mxGeometry x="500" y="310" width="120" height="40" as="geometry" />
        </mxCell>
        <mxCell id="qOD5johp-wV2QWAiRMah-32" style="edgeStyle=orthogonalEdgeStyle;rounded=0;orthogonalLoop=1;jettySize=auto;html=1;entryX=0.5;entryY=0;entryDx=0;entryDy=0;" parent="1" source="qOD5johp-wV2QWAiRMah-24" target="qOD5johp-wV2QWAiRMah-25" edge="1">
          <mxGeometry relative="1" as="geometry" />
        </mxCell>
        <mxCell id="qOD5johp-wV2QWAiRMah-24" value="告警关闭" style="rounded=1;whiteSpace=wrap;html=1;" parent="1" vertex="1">
          <mxGeometry x="500" y="390" width="120" height="40" as="geometry" />
        </mxCell>
        <mxCell id="qOD5johp-wV2QWAiRMah-25" value="已关闭" style="rounded=1;whiteSpace=wrap;html=1;" parent="1" vertex="1">
          <mxGeometry x="500" y="460" width="120" height="40" as="geometry" />
        </mxCell>
        <mxCell id="qOD5johp-wV2QWAiRMah-33" value="已归档" style="rounded=1;whiteSpace=wrap;html=1;" parent="1" vertex="1">
          <mxGeometry x="100" y="590" width="120" height="40" as="geometry" />
        </mxCell>
        <mxCell id="qOD5johp-wV2QWAiRMah-36" value="" style="endArrow=none;html=1;rounded=0;entryX=0.5;entryY=1;entryDx=0;entryDy=0;" parent="1" target="qOD5johp-wV2QWAiRMah-17" edge="1">
          <mxGeometry width="50" height="50" relative="1" as="geometry">
            <mxPoint x="340" y="610" as="sourcePoint" />
            <mxPoint x="340" y="510" as="targetPoint" />
          </mxGeometry>
        </mxCell>
        <mxCell id="qOD5johp-wV2QWAiRMah-37" value="告警归档" style="edgeLabel;html=1;align=center;verticalAlign=middle;resizable=0;points=[];" parent="qOD5johp-wV2QWAiRMah-36" vertex="1" connectable="0">
          <mxGeometry x="0.0545" y="-1" relative="1" as="geometry">
            <mxPoint as="offset" />
          </mxGeometry>
        </mxCell>
        <mxCell id="qOD5johp-wV2QWAiRMah-40" value="" style="endArrow=none;dashed=1;html=1;rounded=0;" parent="1" edge="1">
          <mxGeometry width="50" height="50" relative="1" as="geometry">
            <mxPoint x="690" y="640" as="sourcePoint" />
            <mxPoint x="690" as="targetPoint" />
          </mxGeometry>
        </mxCell>
        <mxCell id="qOD5johp-wV2QWAiRMah-41" value="&lt;span style=&quot;font-size: 24px;&quot;&gt;系统管理员&lt;/span&gt;" style="text;html=1;align=center;verticalAlign=middle;whiteSpace=wrap;rounded=0;" parent="1" vertex="1">
          <mxGeometry x="800" y="10" width="130" height="30" as="geometry" />
        </mxCell>
        <mxCell id="qOD5johp-wV2QWAiRMah-45" value="" style="edgeStyle=orthogonalEdgeStyle;rounded=0;orthogonalLoop=1;jettySize=auto;html=1;" parent="1" source="qOD5johp-wV2QWAiRMah-42" target="qOD5johp-wV2QWAiRMah-44" edge="1">
          <mxGeometry relative="1" as="geometry" />
        </mxCell>
        <mxCell id="qOD5johp-wV2QWAiRMah-54" value="" style="edgeStyle=orthogonalEdgeStyle;rounded=0;orthogonalLoop=1;jettySize=auto;html=1;" parent="1" source="qOD5johp-wV2QWAiRMah-42" target="qOD5johp-wV2QWAiRMah-53" edge="1">
          <mxGeometry relative="1" as="geometry" />
        </mxCell>
        <mxCell id="qOD5johp-wV2QWAiRMah-75" value="告警认领" style="edgeLabel;html=1;align=center;verticalAlign=middle;resizable=0;points=[];" parent="qOD5johp-wV2QWAiRMah-54" vertex="1" connectable="0">
          <mxGeometry x="0.0222" y="-3" relative="1" as="geometry">
            <mxPoint as="offset" />
          </mxGeometry>
        </mxCell>
        <mxCell id="qOD5johp-wV2QWAiRMah-42" value="未响应" style="rounded=1;whiteSpace=wrap;html=1;" parent="1" vertex="1">
          <mxGeometry x="730" y="165" width="100" height="40" as="geometry" />
        </mxCell>
        <mxCell id="qOD5johp-wV2QWAiRMah-47" value="" style="edgeStyle=orthogonalEdgeStyle;rounded=0;orthogonalLoop=1;jettySize=auto;html=1;" parent="1" source="qOD5johp-wV2QWAiRMah-44" target="qOD5johp-wV2QWAiRMah-46" edge="1">
          <mxGeometry relative="1" as="geometry" />
        </mxCell>
        <mxCell id="qOD5johp-wV2QWAiRMah-52" value="分配升级" style="edgeLabel;html=1;align=center;verticalAlign=middle;resizable=0;points=[];" parent="qOD5johp-wV2QWAiRMah-47" vertex="1" connectable="0">
          <mxGeometry x="-0.4444" y="1" relative="1" as="geometry">
            <mxPoint x="12" y="1" as="offset" />
          </mxGeometry>
        </mxCell>
        <mxCell id="qOD5johp-wV2QWAiRMah-44" value="是否未响应" style="rhombus;whiteSpace=wrap;html=1;" parent="1" vertex="1">
          <mxGeometry x="880" y="155" width="90" height="60" as="geometry" />
        </mxCell>
        <mxCell id="qOD5johp-wV2QWAiRMah-48" style="edgeStyle=orthogonalEdgeStyle;rounded=0;orthogonalLoop=1;jettySize=auto;html=1;entryX=0.5;entryY=0;entryDx=0;entryDy=0;" parent="1" source="qOD5johp-wV2QWAiRMah-46" target="qOD5johp-wV2QWAiRMah-42" edge="1">
          <mxGeometry relative="1" as="geometry">
            <mxPoint x="810" y="60" as="targetPoint" />
            <Array as="points">
              <mxPoint x="1085" y="70" />
              <mxPoint x="780" y="70" />
            </Array>
          </mxGeometry>
        </mxCell>
        <mxCell id="qOD5johp-wV2QWAiRMah-46" value="告警分派" style="rounded=1;whiteSpace=wrap;html=1;" parent="1" vertex="1">
          <mxGeometry x="1035" y="165" width="100" height="40" as="geometry" />
        </mxCell>
        <mxCell id="qOD5johp-wV2QWAiRMah-50" value="" style="endArrow=none;dashed=1;html=1;rounded=0;" parent="1" edge="1">
          <mxGeometry width="50" height="50" relative="1" as="geometry">
            <mxPoint x="1000" y="640" as="sourcePoint" />
            <mxPoint x="1000" as="targetPoint" />
          </mxGeometry>
        </mxCell>
        <mxCell id="ibjQ9SeD4kki5mKgbSd6-5" value="分派升级" style="edgeLabel;html=1;align=center;verticalAlign=middle;resizable=0;points=[];" vertex="1" connectable="0" parent="qOD5johp-wV2QWAiRMah-50">
          <mxGeometry x="0.4199" y="-2" relative="1" as="geometry">
            <mxPoint y="-1" as="offset" />
          </mxGeometry>
        </mxCell>
        <mxCell id="qOD5johp-wV2QWAiRMah-51" value="&lt;span style=&quot;font-size: 24px;&quot;&gt;运维组长&lt;/span&gt;" style="text;html=1;align=center;verticalAlign=middle;whiteSpace=wrap;rounded=0;" parent="1" vertex="1">
          <mxGeometry x="1020" y="10" width="130" height="30" as="geometry" />
        </mxCell>
        <mxCell id="qOD5johp-wV2QWAiRMah-56" value="" style="edgeStyle=orthogonalEdgeStyle;rounded=0;orthogonalLoop=1;jettySize=auto;html=1;" parent="1" source="qOD5johp-wV2QWAiRMah-53" target="qOD5johp-wV2QWAiRMah-55" edge="1">
          <mxGeometry relative="1" as="geometry" />
        </mxCell>
        <mxCell id="qOD5johp-wV2QWAiRMah-58" style="edgeStyle=orthogonalEdgeStyle;rounded=0;orthogonalLoop=1;jettySize=auto;html=1;entryX=0.5;entryY=0;entryDx=0;entryDy=0;" parent="1" source="qOD5johp-wV2QWAiRMah-53" target="qOD5johp-wV2QWAiRMah-57" edge="1">
          <mxGeometry relative="1" as="geometry" />
        </mxCell>
        <mxCell id="qOD5johp-wV2QWAiRMah-53" value="处理中" style="rounded=1;whiteSpace=wrap;html=1;" parent="1" vertex="1">
          <mxGeometry x="730" y="260" width="100" height="40" as="geometry" />
        </mxCell>
        <mxCell id="qOD5johp-wV2QWAiRMah-61" value="" style="edgeStyle=orthogonalEdgeStyle;rounded=0;orthogonalLoop=1;jettySize=auto;html=1;" parent="1" source="qOD5johp-wV2QWAiRMah-55" target="qOD5johp-wV2QWAiRMah-59" edge="1">
          <mxGeometry relative="1" as="geometry" />
        </mxCell>
        <mxCell id="qOD5johp-wV2QWAiRMah-63" value="告警恢复" style="edgeLabel;html=1;align=center;verticalAlign=middle;resizable=0;points=[];" parent="qOD5johp-wV2QWAiRMah-61" vertex="1" connectable="0">
          <mxGeometry x="-0.1492" y="2" relative="1" as="geometry">
            <mxPoint as="offset" />
          </mxGeometry>
        </mxCell>
        <mxCell id="qOD5johp-wV2QWAiRMah-55" value="告警处理" style="rounded=1;whiteSpace=wrap;html=1;" parent="1" vertex="1">
          <mxGeometry x="730" y="340" width="100" height="40" as="geometry" />
        </mxCell>
        <mxCell id="qOD5johp-wV2QWAiRMah-62" value="" style="edgeStyle=orthogonalEdgeStyle;rounded=0;orthogonalLoop=1;jettySize=auto;html=1;" parent="1" source="qOD5johp-wV2QWAiRMah-57" target="qOD5johp-wV2QWAiRMah-60" edge="1">
          <mxGeometry relative="1" as="geometry" />
        </mxCell>
        <mxCell id="qOD5johp-wV2QWAiRMah-57" value="告警关闭" style="rounded=1;whiteSpace=wrap;html=1;" parent="1" vertex="1">
          <mxGeometry x="880" y="340" width="100" height="40" as="geometry" />
        </mxCell>
        <mxCell id="qOD5johp-wV2QWAiRMah-59" value="已恢复" style="rounded=1;whiteSpace=wrap;html=1;" parent="1" vertex="1">
          <mxGeometry x="730" y="460" width="100" height="40" as="geometry" />
        </mxCell>
        <mxCell id="qOD5johp-wV2QWAiRMah-65" style="edgeStyle=orthogonalEdgeStyle;rounded=0;orthogonalLoop=1;jettySize=auto;html=1;entryX=1;entryY=0.5;entryDx=0;entryDy=0;" parent="1" source="qOD5johp-wV2QWAiRMah-60" target="qOD5johp-wV2QWAiRMah-33" edge="1">
          <mxGeometry relative="1" as="geometry">
            <Array as="points">
              <mxPoint x="930" y="610" />
            </Array>
          </mxGeometry>
        </mxCell>
        <mxCell id="qOD5johp-wV2QWAiRMah-74" value="告警归档" style="edgeLabel;html=1;align=center;verticalAlign=middle;resizable=0;points=[];" parent="qOD5johp-wV2QWAiRMah-65" vertex="1" connectable="0">
          <mxGeometry x="-0.8759" y="3" relative="1" as="geometry">
            <mxPoint as="offset" />
          </mxGeometry>
        </mxCell>
        <mxCell id="qOD5johp-wV2QWAiRMah-60" value="已关闭" style="rounded=1;whiteSpace=wrap;html=1;" parent="1" vertex="1">
          <mxGeometry x="880" y="460" width="100" height="40" as="geometry" />
        </mxCell>
        <mxCell id="qOD5johp-wV2QWAiRMah-66" value="" style="endArrow=none;html=1;rounded=0;entryX=0.5;entryY=1;entryDx=0;entryDy=0;" parent="1" edge="1">
          <mxGeometry width="50" height="50" relative="1" as="geometry">
            <mxPoint x="559.44" y="610" as="sourcePoint" />
            <mxPoint x="559.44" y="500" as="targetPoint" />
          </mxGeometry>
        </mxCell>
        <mxCell id="qOD5johp-wV2QWAiRMah-72" value="告警归档" style="edgeLabel;html=1;align=center;verticalAlign=middle;resizable=0;points=[];" parent="qOD5johp-wV2QWAiRMah-66" vertex="1" connectable="0">
          <mxGeometry x="0.0949" y="-1" relative="1" as="geometry">
            <mxPoint as="offset" />
          </mxGeometry>
        </mxCell>
        <mxCell id="qOD5johp-wV2QWAiRMah-68" value="" style="endArrow=none;html=1;rounded=0;entryX=0.5;entryY=1;entryDx=0;entryDy=0;" parent="1" edge="1">
          <mxGeometry width="50" height="50" relative="1" as="geometry">
            <mxPoint x="779.44" y="610" as="sourcePoint" />
            <mxPoint x="779.44" y="500" as="targetPoint" />
          </mxGeometry>
        </mxCell>
        <mxCell id="qOD5johp-wV2QWAiRMah-73" value="告警归档" style="edgeLabel;html=1;align=center;verticalAlign=middle;resizable=0;points=[];" parent="qOD5johp-wV2QWAiRMah-68" vertex="1" connectable="0">
          <mxGeometry x="-0.2485" y="3" relative="1" as="geometry">
            <mxPoint y="-19" as="offset" />
          </mxGeometry>
        </mxCell>
      </root>
    </mxGraphModel>
  </diagram>
</mxfile>
